<?xml version="1.0" encoding="iso-8859-1"?>
<!-- Generator: Adobe Illustrator 21.1.0, SVG Export Plug-In . SVG Version: 6.00 Build 0)  -->
<svg version="1.1" xmlns="http://www.w3.org/2000/svg" xmlns:xlink="http://www.w3.org/1999/xlink" x="0px" y="0px"
	 viewBox="0 0 33 33" style="enable-background:new 0 0 33 33;" xml:space="preserve">
<g id="white-arrow-left">
	<g id="White-Arrow" transform="translate(20.000000, 20.000000) scale(-1, 1) translate(-20.000000, -20.000000) ">
		<g id="Page-1_2_">
			<path id="Fill-1_3_" style="fill:#FFFFFF;" d="M23.5,31.9c-8.491,0-15.4-6.909-15.4-15.4S15.009,1.1,23.5,1.1
				s15.4,6.909,15.4,15.4S31.991,31.9,23.5,31.9 M23.5,0C14.402,0,7,7.401,7,16.5C7,25.598,14.402,33,23.5,33S40,25.598,40,16.5
				C40,7.401,32.598,0,23.5,0"/>
			<path id="Fill-3_3_" style="fill:#FFFFFF;" d="M34.889,16.111l-8.8-8.8c-0.215-0.215-0.563-0.215-0.778,0
				c-0.215,0.215-0.215,0.563,0,0.778l7.861,7.861H13.05c-0.304,0-0.55,0.246-0.55,0.55s0.246,0.55,0.55,0.55h20.122l-7.861,7.861
				c-0.215,0.215-0.215,0.563,0,0.778c0.107,0.107,0.248,0.161,0.389,0.161c0.141,0,0.282-0.054,0.389-0.161l8.8-8.8
				C35.104,16.674,35.104,16.326,34.889,16.111"/>
		</g>
	</g>
</g>
<g id="Layer_1">
</g>
</svg>
