<?xml version="1.0" encoding="iso-8859-1"?>
<!-- Generator: Adobe Illustrator 21.1.0, SVG Export Plug-In . SVG Version: 6.00 Build 0)  -->
<svg version="1.1" xmlns="http://www.w3.org/2000/svg" xmlns:xlink="http://www.w3.org/1999/xlink" x="0px" y="0px"
	 viewBox="0 0 39.817 39.489" style="enable-background:new 0 0 39.817 39.489;" xml:space="preserve">
<g id="close_x5F_button">
	<g id="Close-Button" transform="translate(890.000000, 1185.000000)">
		<g id="Group-3" transform="translate(0.000000, 0.469338)">
			<g id="Clip-2">
			</g>
			<defs>
				<filter id="Adobe_OpacityMaskFilter" filterUnits="userSpaceOnUse" x="-890" y="-1185.469" width="39.817" height="39.489">
					<feColorMatrix  type="matrix" values="1 0 0 0 0  0 1 0 0 0  0 0 1 0 0  0 0 0 1 0"/>
				</filter>
			</defs>
			<mask maskUnits="userSpaceOnUse" x="-890" y="-1185.469" width="39.817" height="39.489" id="mask-8_2_">
				<g style="filter:url(#Adobe_OpacityMaskFilter);">
					<polygon id="path-7_2_" style="fill:#FFFFFF;" points="-889.093,-1145.847 -849.276,-1145.847 -849.276,-1185.336 
						-889.093,-1185.336 					"/>
				</g>
			</mask>
			<path id="Fill-1_5_" style="mask:url(#mask-8_2_);fill:#FFFFFF;" d="M-870.092-1183.682c4.845,0,9.393,1.866,12.809,5.254
				c3.416,3.387,5.298,7.899,5.298,12.703c0,4.805-1.881,9.316-5.298,12.703c-3.416,3.388-7.964,5.254-12.809,5.254
				c-4.845-0.001-9.393-1.866-12.809-5.254c-3.416-3.388-5.298-7.899-5.298-12.703c0-4.804,1.881-9.315,5.298-12.703
				C-879.485-1181.816-874.936-1183.681-870.092-1183.682 M-856.007-1179.693c-3.757-3.725-8.758-5.777-14.085-5.777
				c-5.326,0-10.328,2.052-14.085,5.777c-3.755,3.725-5.824,8.686-5.824,13.968c0,5.282,2.068,10.243,5.824,13.968
				c3.756,3.724,8.758,5.776,14.085,5.776c5.326,0,10.328-2.052,14.085-5.776c3.756-3.726,5.824-8.686,5.824-13.968
				C-850.183-1171.007-852.252-1175.968-856.007-1179.693"/>
		</g>
		<path id="Fill-4" style="fill:#FFFFFF;" d="M-871.83-1164.796l-6.781,6.725c-0.171,0.169-0.265,0.393-0.265,0.632
			c0,0.239,0.094,0.464,0.264,0.632c0.341,0.339,0.935,0.339,1.276,0.001l6.78-6.726l7.245,7.185
			c0.171,0.17,0.397,0.263,0.638,0.263s0.468-0.093,0.637-0.262c0.17-0.169,0.265-0.394,0.265-0.632
			c0-0.239-0.094-0.464-0.265-0.633h0.001l-7.245-7.185l7.708-7.645c0.171-0.169,0.265-0.393,0.265-0.633
			c0-0.239-0.094-0.463-0.264-0.631c-0.341-0.339-0.935-0.339-1.276-0.001l-7.708,7.645l-7.245-7.185
			c-0.17-0.169-0.397-0.262-0.637-0.262h-0.001c-0.241,0-0.467,0.093-0.637,0.262c-0.171,0.169-0.265,0.393-0.265,0.632
			c0,0.239,0.094,0.464,0.264,0.633L-871.83-1164.796z"/>
	</g>
</g>
<g id="Layer_1">
</g>
</svg>
