<?xml version="1.0" encoding="UTF-8"?>
<svg width="200px" height="196px" viewBox="0 0 200 196" version="1.1" xmlns="http://www.w3.org/2000/svg" xmlns:xlink="http://www.w3.org/1999/xlink">
    <!-- Generator: Sketch 46 (44423) - http://www.bohemiancoding.com/sketch -->
    <title>logoewfwef</title>
    <desc>Created with Sketch.</desc>
    <defs></defs>
    <g id="Page-1" stroke="none" stroke-width="1" fill="none" fill-rule="evenodd">
        <g id="logoewfwef">
            <circle id="Oval" stroke="#0058A4" stroke-width="1.53" fill="#FFFFFF" fill-rule="nonzero" cx="97.87" cy="97.87" r="97.1"></circle>
            <rect id="Rectangle-path" fill="#FFE539" fill-rule="nonzero" x="84.5" y="103.36" width="29.68" height="8.12"></rect>
            <rect id="Rectangle-path" fill="#FFE539" fill-rule="nonzero" x="84.5" y="85.46" width="29.68" height="8.12"></rect>
            <g id="Group" transform="translate(16.000000, 16.000000)">
                <path d="M29.32,105.48 L29.32,59.72 L46.32,59.72 C54.45,59.72 59.91,62.88 59.91,71.62 C59.91,75.74 58.58,79.08 54.91,80.96 L54.91,81.08 C61.46,81.93 64.26,86.36 64.26,92.73 C64.26,102.31 56.07,105.47 47.69,105.47 L29.32,105.47 L29.32,105.48 Z" id="Shape" fill="#0058A4" fill-rule="nonzero"></path>
                <rect id="Rectangle-path" fill="#231F20" fill-rule="nonzero" x="68.51" y="77.44" width="29.66" height="10.08"></rect>
                <rect id="Rectangle-path" fill="#231F20" fill-rule="nonzero" x="68.52" y="95.4" width="29.62" height="10.07"></rect>
                <rect id="Rectangle-path" fill="#231F20" fill-rule="nonzero" x="68.52" y="59.72" width="29.62" height="10.07"></rect>
                <path d="M82.13,59.11 L48.94,83.59 C55,89.5 64.08,87.82 69.77,81 C75.46,74.18 82.13,59.11 82.13,59.11 Z" id="Shape" fill="#FFFFFF" fill-rule="nonzero"></path>
                <polygon id="Shape" fill="#0058A4" fill-rule="nonzero" points="117.49 70.23 117.49 77.87 132.35 77.87 132.35 87.94 117.49 87.94 117.49 95.84 133.08 95.84 133.08 105.91 105.6 105.91 105.6 60.15 133.08 60.15 133.08 70.23"></polygon>
                <path d="M81,43.4 L81,37.23 C81,33.8 78.78,31 76.26,30.69 C73.95,30.4 70.83,31.79 70.77,34.69 C70.77,37.16 72.13,38.49 73.88,38.46 C74.5384191,38.4928373 75.1794988,38.2427975 75.6418137,37.7728411 C76.1041285,37.3028847 76.343626,36.6577924 76.3,36 C76.2893113,35.0473672 75.5225553,34.2761791 74.57,34.26 C74.197262,34.202781 73.8184905,34.3155196 73.5377102,34.5672537 C73.2569299,34.8189878 73.1036622,35.1832498 73.12,35.56" id="Shape" stroke="#231F20" stroke-width="0.39"></path>
                <path d="M85.44,43.4 L85.44,37.23 C85.44,33.8 87.66,31 90.18,30.69 C92.49,30.4 95.61,31.79 95.67,34.69 C95.67,37.16 94.31,38.49 92.56,38.46 C91.9066799,38.4840498 91.2737637,38.2301407 90.8182033,37.7612375 C90.3626428,37.2923343 90.1271054,36.6523539 90.17,36 C90.1501531,35.534476 90.3256946,35.0818286 90.6542179,34.7514063 C90.9827412,34.420984 91.4343694,34.2428365 91.9,34.26 C92.272738,34.202781 92.6515095,34.3155196 92.9322898,34.5672537 C93.2130701,34.8189878 93.3663378,35.1832498 93.35,35.56" id="Shape" stroke="#231F20" stroke-width="0.39"></path>
                <path d="M14.18,114.84 L14.89,114.42 C15.2278054,114.235845 15.4300038,113.874221 15.41,113.49 C15.4324474,112.946232 15.3154031,112.405762 15.07,111.92 C14.8559072,111.396176 14.4348069,110.984149 13.9064441,110.781515 C13.3780813,110.578881 12.789458,110.603666 12.28,110.85 C11.39,111.26 11.08,112.03 11.64,113.75 C12.29,115.68 12.36,117.06 10.87,117.75 C8.63,118.75 6.64,117.26 5.76,115.31 C5.41427699,114.535749 5.23376998,113.697924 5.23,112.85 C5.91867633,112.633773 6.58774683,112.359454 7.23,112.03 L7.42,112.45 L6.59,112.95 C6.07,113.27 6.04,114.53 6.51,115.57 C6.72051842,116.188273 7.17685432,116.692264 7.77124797,116.962959 C8.36564161,117.233654 9.0453985,117.247056 9.65,117 C10.89,116.43 10.81,115.3 10.35,113.89 C9.65,111.72 9.92,110.62 11.28,110 C13.28,109.07 15.05,110.43 15.77,112 C16.1195537,112.829271 16.2997532,113.720068 16.3,114.62 C15.6358526,114.773642 14.989156,114.994792 14.37,115.28 L14.18,114.84 Z" id="Shape" fill="#231F20" fill-rule="nonzero"></path>
                <path d="M20.9,135.2 C20.6079015,135.419934 20.3658873,135.699444 20.19,136.02 C20.1696413,136.246065 20.2634201,136.467383 20.44,136.61 L20.87,137.15 L20.55,137.44 C20.07,136.87 19.62,136.36 19.18,135.87 C18.74,135.38 18.24,134.87 17.71,134.32 L18,134 L18.5,134.48 C18.6249912,134.672221 18.8407883,134.785798 19.07,134.78 C19.4054982,134.636211 19.705755,134.421254 19.95,134.15 L24.72,129.79 C25.0052318,129.571057 25.2376224,129.290822 25.4,128.97 C25.4209721,128.737228 25.3322325,128.507984 25.16,128.35 L24.76,127.84 L25.08,127.55 C25.71,128.26 26.24,128.88 26.8,129.49 C27.36,130.1 27.95,130.7 28.48,131.27 C29.48,132.27 30.06,133.86 28.86,134.95 C28.1926768,135.512391 27.3261811,135.780818 26.4577945,135.694168 C25.5894079,135.607518 24.7930379,135.173164 24.25,134.49 C24.0556727,134.2766 23.8815914,134.045607 23.73,133.8 L24.02,133.34 C24.1537838,133.63272 24.3326206,133.902662 24.55,134.14 C24.9282891,134.562858 25.4635647,134.811908 26.0306824,134.828921 C26.5978001,134.845935 27.1470425,134.629421 27.55,134.23 C28.65,133.23 28.55,132.11 27.55,131.06 C27.2228175,130.678324 26.8461591,130.342022 26.43,130.06 L20.9,135.2 Z" id="Shape" fill="#231F20" fill-rule="nonzero"></path>
                <path d="M42.61,145.11 C42.8177026,144.809328 42.9607204,144.468809 43.03,144.11 C42.9813618,143.886404 42.8235269,143.702263 42.61,143.62 L42,143.24 L42.21,142.87 C42.89,143.27 43.59,143.7 44.31,144.1 C45.4,144.71 46.58,145.32 47.31,145.73 C47.87,146.05 48.43,146.37 48.9,146.68 C48.4115023,147.227649 47.9855414,147.828019 47.63,148.47 L47.19,148.22 L47.65,147.4 C47.7520369,147.293492 47.7832233,147.13756 47.73,147 C47.0560729,146.329254 46.2754593,145.775052 45.42,145.36 C45.0724173,145.149985 44.6993875,144.985314 44.31,144.87 L42.43,148.22 C42.82,148.47 43.26,148.73 43.86,149.08 C44.2870145,149.370999 44.7655378,149.57802 45.27,149.69 C45.3973867,149.639998 45.5010377,149.543495 45.56,149.42 L45.99,148.8 L46.37,149 C46.07,149.51 45.77,150 45.51,150.43 C45.25,150.86 45.01,151.43 44.76,151.84 L44.39,151.63 L44.74,150.86 C44.8116843,150.750913 44.8368804,150.617734 44.81,150.49 C44.4646627,150.101644 44.0378363,149.794329 43.56,149.59 C42.96,149.25 42.49,148.99 42.08,148.81 L40.08,152.32 C40.3832892,152.590758 40.7192253,152.822554 41.08,153.01 C41.9077923,153.525204 42.7897674,153.947747 43.71,154.27 C44.2555978,154.040275 44.7093785,153.635742 45,153.12 L45.44,153.37 C44.9253466,153.971436 44.4699045,154.621111 44.08,155.31 C43.52,155.01 42.51,154.49 41.59,153.96 C40.67,153.43 39.66,152.82 38.88,152.38 C38.4,152.11 37.98,151.9 37.52,151.66 L37.73,151.29 L38.2,151.5 C38.3812994,151.633037 38.6143449,151.673728 38.83,151.61 C39.1039288,151.365918 39.3221919,151.065806 39.47,150.73 L42.61,145.11 Z" id="Shape" fill="#231F20" fill-rule="nonzero"></path>
                <path d="M64.37,161.67 C64.7441933,161.831965 65.1372816,161.946195 65.54,162.01 C66.5741325,162.278382 67.6427625,162.389627 68.71,162.34 C68.9183703,162.092237 69.0778555,161.807199 69.18,161.5 L69.49,160.83 L69.94,160.92 C69.7,161.68 69.42,162.61 69.17,163.29 C68.54,163.18 67.42,163.01 66.38,162.8 C65.11,162.54 64.18,162.33 63.31,162.16 C62.83,162.07 62.47,162.03 62.1,161.97 L62.16,161.65 L62.64,161.51 C62.9372949,161.365082 63.1325574,161.070274 63.15,160.74 L64.44,154.04 C64.5442008,153.686549 64.5714795,153.314877 64.52,152.95 C64.4022462,152.757526 64.1955209,152.637249 63.97,152.63 L63.3,152.46 L63.38,152.04 C64.11,152.21 64.77,152.34 65.46,152.49 C66.15,152.64 66.78,152.72 67.52,152.84 L67.44,153.27 L66.75,153.18 C66.5364227,153.106658 66.3003686,153.144127 66.12,153.28 C65.9421564,153.586983 65.8297981,153.927462 65.79,154.28 L64.37,161.67 Z" id="Shape" fill="#231F20" fill-rule="nonzero"></path>
                <path d="M90.28,162.89 C90.6819211,162.937733 91.0880789,162.937733 91.49,162.89 C92.5577886,162.824932 93.6096381,162.599054 94.61,162.22 C94.7329804,161.901128 94.79407,161.561741 94.79,161.22 L94.87,160.49 L95.33,160.44 C95.33,161.23 95.33,162.21 95.33,162.93 C94.7,163.03 93.58,163.21 92.52,163.33 C91.23,163.48 90.29,163.57 89.4,163.69 C88.91,163.75 88.56,163.82 88.19,163.89 L88.19,163.56 L88.6,163.28 C88.8390368,163.050904 88.9347808,162.710056 88.85,162.39 L88,155.61 C87.9911665,155.242001 87.9024521,154.880319 87.74,154.55 C87.5686911,154.396842 87.3300525,154.343811 87.11,154.41 L86.42,154.41 L86.37,153.98 C87.12,153.91 87.79,153.84 88.49,153.75 C89.19,153.66 89.82,153.56 90.56,153.44 L90.61,153.87 L89.93,154 C89.7031485,153.993897 89.4886265,154.10304 89.36,154.29 C89.2808029,154.649018 89.2808029,155.020982 89.36,155.38 L90.28,162.89 Z" id="Shape" fill="#231F20" fill-rule="nonzero"></path>
                <path d="M114.78,155 C114.898035,155.346469 115.088995,155.663599 115.34,155.93 C115.547255,156.027191 115.790354,156.008199 115.98,155.88 L116.62,155.64 L116.8,156.03 C116.1,156.31 115.48,156.58 114.88,156.85 C114.28,157.12 113.63,157.43 112.96,157.76 L112.78,157.37 L113.39,157.04 C113.609572,156.983587 113.783889,156.816849 113.85,156.6 C113.815926,156.247649 113.706814,155.906675 113.53,155.6 L110.87,149.71 C110.754306,149.362447 110.563058,149.044839 110.31,148.78 C110.102048,148.686729 109.860944,148.705565 109.67,148.83 L109,149 L108.83,148.6 C109.52,148.33 110.15,148.06 110.83,147.77 C111.51,147.48 112.05,147.21 112.72,146.87 L112.9,147.26 L112.29,147.58 C112.069953,147.641728 111.896549,147.811363 111.83,148.03 C111.868053,148.382918 111.980528,148.723751 112.16,149.03 L114.78,155 Z" id="Shape" fill="#231F20" fill-rule="nonzero"></path>
                <path d="M127.74,139.51 C127.520746,139.217267 127.241087,138.975123 126.92,138.8 C126.694497,138.783143 126.474741,138.87626 126.33,139.05 L125.83,139.44 L125.54,139.12 C126.02,138.71 126.46,138.34 126.85,137.99 C127.04,137.82 127.21,137.62 127.39,137.43 L138.2,139.06 L138.2,139.06 L133.67,134.06 C133.449402,133.768522 133.170037,133.526633 132.85,133.35 C132.62335,133.338848 132.404705,133.4352 132.26,133.61 L131.76,134 L131.47,133.68 C131.9,133.3 132.35,132.94 132.73,132.58 C133.11,132.22 133.52,131.83 133.98,131.38 L134.27,131.7 L133.83,132.16 C133.645848,132.292181 133.534697,132.503368 133.53,132.73 C133.679657,133.06474 133.897655,133.364488 134.17,133.61 L139.52,139.48 C139.64,139.61 139.79,139.73 139.91,139.84 L138.8,140.55 L128.12,138.9 L128.12,138.9 L132.59,143.8 C132.810598,144.091478 133.089963,144.333367 133.41,144.51 C133.635782,144.528576 133.856299,144.435137 134,144.26 L134.5,143.87 L134.79,144.19 C134.31,144.6 133.91,144.94 133.49,145.32 C133.07,145.7 132.7,146.08 132.28,146.48 L131.99,146.16 L132.43,145.7 C132.615391,145.568901 132.726897,145.35704 132.73,145.13 C132.580861,144.794961 132.362789,144.495112 132.09,144.25 L127.74,139.51 Z" id="Shape" fill="#231F20" fill-rule="nonzero"></path>
                <path d="M153,115.64 C152.890375,115.555048 152.746507,115.528186 152.613614,115.567856 C152.48072,115.607525 152.375119,115.708856 152.33,115.84 L151.69,116.84 L151.31,116.64 C151.59,116.13 151.88,115.64 152.14,115.1 C152.4,114.56 152.67,114.04 152.93,113.51 L153.28,113.63 L153.22,114.06 C153.22,114.23 153.22,114.25 153.62,114.45 L155.77,115.56 C155.555596,116.832406 155.189659,118.074575 154.68,119.26 C153.2,122.11 150.53,123.64 147.32,121.97 C144.51,120.51 143.9,117.26 145.49,114.18 C146.05316,113.106207 146.785912,112.130329 147.66,111.29 C148.209399,111.782612 148.817295,112.205789 149.47,112.55 L149.26,112.95 L148.58,112.6 C147.98,112.29 147.58,112.6 147.01,113.13 C146.534347,113.619269 146.142445,114.183472 145.85,114.8 C144.59,117.23 145.53,119.33 147.85,120.51 C150.39,121.83 152.99,121.29 154.35,118.66 C154.86,117.66 155.02,116.83 154.83,116.66 C154.693471,116.514657 154.526007,116.401875 154.34,116.33 L153,115.64 Z" id="Shape" fill="#231F20" fill-rule="nonzero"></path>
                <path d="M5.85,55 C5.53961331,54.838525 5.19910828,54.7431836 4.85,54.72 C4.63616373,54.799127 4.47522294,54.9787819 4.42,55.2 L4.14,55.77 L3.74,55.61 C3.99,55.03 4.23,54.5 4.43,54.02 C4.53,53.78 4.6,53.53 4.68,53.28 L15.13,50.08 L15.13,50.08 L8.9,47.56 C8.59027458,47.3968579 8.24940885,47.3014155 7.9,47.28 C7.69001447,47.3618116 7.53321345,47.5410128 7.48,47.76 L7.2,48.33 L6.8,48.17 C7.03,47.64 7.27,47.12 7.46,46.64 C7.65,46.16 7.84,45.64 8.07,45.02 L8.47,45.18 L8.27,45.79 C8.16676706,45.9908446 8.16676706,46.2291554 8.27,46.43 C8.55960192,46.6769017 8.90155593,46.8547178 9.27,46.95 L16.63,49.95 C16.64,50 16.82,50 17,50 L16.3,51.11 L5.95,54.29 L5.95,54.29 L12.1,56.77 C12.4102659,56.9333622 12.7504726,57.0320221 13.1,57.06 C13.3109339,56.9766562 13.4702676,56.7987953 13.53,56.58 L13.84,56 L14.24,56.16 C13.99,56.74 13.77,57.16 13.55,57.74 C13.33,58.32 13.16,58.74 12.96,59.3 L12.56,59.14 L12.76,58.54 C12.8632329,58.3391554 12.8632329,58.1008446 12.76,57.9 C12.4700088,57.6536769 12.128194,57.4759332 11.76,57.38 L5.85,55 Z" id="Shape" fill="#231F20" fill-rule="nonzero"></path>
                <path d="M29.5,28.87 C29.8,28.97 30.19,29.11 30.5,29.19 C30.7511643,29.2826543 31.0318863,29.2452247 31.25,29.09 L31.61,28.76 L32,29.05 C31.56,29.51 31.11,29.96 30.68,30.44 C30.25,30.92 29.93,31.3 29.42,31.88 L29.1,31.59 L29.53,31.06 C29.722187,30.9125513 29.7952802,30.6567251 29.71,30.43 C29.4380316,30.2539373 29.1414786,30.1191405 28.83,30.03 L27.16,29.4 L24.36,32.46 L24.8,33.41 C25.0110162,33.8940262 25.268913,34.3562307 25.57,34.79 C25.79,34.99 26,34.85 26.33,34.55 L26.72,34.19 L27,34.48 C26.52,34.98 26.13,35.36 25.85,35.68 C25.57,36 25.13,36.52 24.77,36.93 L24.45,36.64 L24.78,36.22 C24.9586328,35.9105989 24.9586328,35.5294011 24.78,35.22 L22.2,29.34 C21.76,28.34 21.3,27.25 20.8,26.27 L21.11,25.93 L29.5,28.87 Z M26.5,29.21 L22.11,27.66 L24.05,31.9 L26.5,29.21 Z" id="Shape" fill="#231F20" fill-rule="nonzero"></path>
                <path d="M42.58,11.89 C42.32,11.41 42.09,11.01 41.85,10.66 L39.85,11.72 C39.47,11.93 39.43,12.09 39.57,12.41 L40.06,13.41 L39.67,13.62 C39.3,12.94 38.9,12.25 38.48,11.62 C39.39,11.13 40.32,10.67 41.23,10.18 L43.07,9.18 C43.98,8.69 44.87,8.18 45.78,7.67 C46.07,8.36 46.42,9.07 46.78,9.76 L46.44,10 L45.85,9 C45.66,8.71 45.5,8.65 45.12,8.86 L43.12,9.92 C43.3078547,10.3637202 43.5181255,10.7976125 43.75,11.22 L46.65,16.58 C46.78933,16.9183088 47.0009369,17.2220671 47.27,17.47 C47.4861451,17.5508478 47.7288201,17.5129298 47.91,17.37 L48.54,17.08 L48.75,17.46 C48.08,17.79 47.47,18.1 46.89,18.46 C46.31,18.82 45.68,19.13 45.03,19.51 L44.83,19.13 L45.42,18.76 C45.6370145,18.6856065 45.7998303,18.5038587 45.85,18.28 C45.790596,17.92165 45.6541212,17.5804631 45.45,17.28 L42.58,11.89 Z" id="Shape" fill="#231F20" fill-rule="nonzero"></path>
                <path d="M66.62,9.6 C66.6617165,9.95354157 66.7775743,10.2942996 66.96,10.6 C67.1430453,10.7395455 67.3855678,10.7736502 67.6,10.69 L68.29,10.6 L68.38,11.02 C67.64,11.14 66.97,11.26 66.33,11.39 C65.69,11.52 64.98,11.68 64.25,11.85 L64.16,11.43 L64.83,11.25 C65.0580515,11.2424687 65.2660364,11.1176778 65.38,10.92 C65.4268011,10.5576882 65.3961244,10.189568 65.29,9.84 L64,3.53 C63.9579901,3.17652489 63.8421527,2.83582655 63.66,2.53 C63.4782448,2.37284351 63.2254419,2.32687935 63,2.41 L62.32,2.51 L62.23,2.09 C62.97,1.97 63.64,1.85 64.33,1.71 C65.02,1.57 65.64,1.43 66.33,1.26 L66.42,1.68 L65.75,1.86 C65.5219485,1.86753127 65.3139636,1.99232223 65.2,2.19 C65.1509961,2.55225856 65.181712,2.9208491 65.29,3.27 L66.62,9.6 Z" id="Shape" fill="#231F20" fill-rule="nonzero"></path>
                <path d="M83.38,5 C83.4893482,3.55966807 84.2055168,2.23362729 85.3500182,1.35236126 C86.4945195,0.471095236 87.959555,0.117608837 89.38,0.38 C92.44,0.72 94.38,2.68 94.07,5.86 C93.9198616,7.33469884 93.1818725,8.68670399 92.0227231,9.61063634 C90.8635738,10.5345687 89.3810459,10.9524886 87.91,10.77 C86.5124242,10.6805526 85.2191941,9.99976577 84.3543966,8.8982467 C83.4895991,7.79672763 83.1351954,6.37887259 83.38,5 Z M85,4.6 C84.72,7.1 85.6,9.87 88.43,10.18 C90.82,10.45 92.18,8.71 92.48,6.08 C92.8,3.25 91.74,1.21 89.08,0.91 C86.56,0.64 85.23,2.26 85,4.6 Z" id="Shape" fill="#231F20" fill-rule="nonzero"></path>
                <path d="M111.89,8.36 C112.084353,8.05647906 112.213737,7.71599496 112.27,7.36 C112.206875,7.14201762 112.043352,6.96734449 111.83,6.89 L111.28,6.56 L111.48,6.18 C112.04,6.48 112.53,6.77 113,7 C113.23,7.12 113.47,7.21 113.71,7.31 L116,18 L116,18 L119.05,12 C119.243248,11.6968732 119.369405,11.3559086 119.42,11 C119.356875,10.7820176 119.193352,10.6073445 118.98,10.53 L118.44,10.2 L118.63,9.82 C119.14,10.09 119.63,10.38 120.1,10.62 C120.57,10.86 121.1,11.09 121.66,11.36 L121.46,11.75 L120.88,11.5 C120.693025,11.3691314 120.453435,11.3391827 120.24,11.42 C119.971301,11.6700774 119.762748,11.9777784 119.63,12.32 L116.02,19.4 C115.94,19.55 115.88,19.74 115.82,19.89 L114.82,19.1 L112.6,8.52 L112.6,8.52 L109.6,14.43 C109.407304,14.7334006 109.281192,15.0742427 109.23,15.43 C109.293125,15.6479824 109.456648,15.8226555 109.67,15.9 L110.21,16.23 L110.01,16.61 C109.45,16.31 109.01,16.05 108.49,15.79 C107.97,15.53 107.49,15.32 106.98,15.07 L107.18,14.68 L107.77,14.93 C107.958213,15.0576176 108.196165,15.0873616 108.41,15.01 C108.673281,14.7573797 108.878074,14.4501904 109.01,14.11 L111.89,8.36 Z" id="Shape" fill="#231F20" fill-rule="nonzero"></path>
                <path d="M135.89,34.17 C135.736481,34.4961725 135.599638,34.8299363 135.48,35.17 C135.355553,35.4045129 135.355553,35.6854871 135.48,35.92 L135.78,36.31 L135.46,36.6 C135.04,36.13 134.63,35.6 134.2,35.17 C133.77,34.74 133.41,34.35 132.87,33.79 L133.19,33.5 L133.7,34 C133.82824,34.2056683 134.075997,34.3031462 134.31,34.24 C134.507247,33.9810817 134.665588,33.6947211 134.78,33.39 L135.54,31.78 L132.73,28.78 L131.73,29.13 C131.231548,29.2991277 130.749553,29.5133476 130.29,29.77 C130.07,29.98 130.19,30.19 130.46,30.55 L130.79,30.97 L130.47,31.26 C130.01,30.74 129.67,30.32 129.38,30.01 C129.09,29.7 128.61,29.21 128.23,28.82 L128.55,28.53 L129,28.84 C129.293025,29.0472932 129.674671,29.0816414 130,28.93 L136,26.86 C137,26.51 138.15,26.14 139.18,25.72 L139.49,26.06 L135.89,34.17 Z M135.8,31.17 L137.73,26.93 L133.34,28.49 L135.8,31.17 Z" id="Shape" fill="#231F20" fill-rule="nonzero"></path>
                <path d="M144.87,50.94 C144.944525,51.3405712 145.068822,51.7302579 145.24,52.1 C145.601794,53.1080789 146.11428,54.0555036 146.76,54.91 C147.096006,54.9463022 147.435875,54.915714 147.76,54.82 L148.48,54.7 L148.66,55.12 C147.9,55.35 146.98,55.65 146.27,55.83 C146,55.25 145.51,54.23 145.1,53.25 C144.6,52.06 144.25,51.17 143.89,50.35 C143.7,49.9 143.53,49.58 143.36,49.24 L143.67,49.11 L144,49.42 C144.285191,49.582307 144.634809,49.582307 144.92,49.42 L151.18,46.71 C151.528899,46.5956415 151.849372,46.4081311 152.12,46.16 C152.230354,45.9609377 152.230354,45.7190623 152.12,45.52 L151.88,44.87 L152.28,44.7 C152.55,45.4 152.8,46.02 153.09,46.7 C153.38,47.38 153.63,47.92 153.96,48.6 L153.57,48.77 L153.26,48.15 C153.203147,47.9285137 153.037261,47.7513172 152.82,47.68 C152.469095,47.7144581 152.128865,47.8199293 151.82,47.99 L144.87,50.94 Z" id="Shape" fill="#231F20" fill-rule="nonzero"></path>
                <polygon id="Shape" fill="#F04B54" fill-rule="nonzero" points="159 79.87 164 80.21 160.1 83.63 161.38 88.63 157.11 85.83 152.85 88.63 153.97 83.63 150.24 80.21 155.29 79.86 157.12 75.43"></polygon>
                <polygon id="Shape" fill="#F04B54" fill-rule="nonzero" points="9 79.87 14.06 80.22 10.16 83.64 11.44 88.64 7.17 85.84 2.9 88.64 4.02 83.64 0.29 80.22 5.34 79.87 7.17 75.44"></polygon>
                <polygon id="Shape" fill="#FFFFFF" fill-rule="nonzero" points="46.27 70.6 50.82 70.91 47.31 74 48.46 78.46 44.62 75.94 40.78 78.46 41.78 74 38.42 70.92 43 70.6 44.65 66.6"></polygon>
                <polygon id="Shape" fill="#FFFFFF" fill-rule="nonzero" points="45.94 88.71 50.49 89 47 92.1 48.15 96.57 44.29 94 40.45 96.52 41.45 92.05 38.1 89 42.65 88.69 44.3 84.69"></polygon>
                <circle id="Oval" fill="#231F20" fill-rule="nonzero" cx="75.38" cy="50.6" r="6.73"></circle>
                <circle id="Oval" fill="#231F20" fill-rule="nonzero" cx="91.24" cy="50.6" r="6.73"></circle>
                <path d="M84.57,59.11 L117.75,83.58 C111.66,89.49 102.61,87.81 96.93,81.04 C91.25,74.27 84.57,59.11 84.57,59.11 Z" id="Shape" fill="#FFFFFF" fill-rule="nonzero"></path>
            </g>
            <path d="M193.66,147 C194.063209,147.02223 194.466982,146.967941 194.85,146.84 C195.079046,146.752418 195.277272,146.599402 195.42,146.4 C195.553651,146.209898 195.623665,145.982353 195.62,145.75 C195.62795,145.395769 195.486385,145.054561 195.23,144.81 C194.962571,144.552048 194.601247,144.414745 194.23,144.43 C194.031792,144.433166 193.835603,144.470374 193.65,144.54 L193.65,147 L193.66,147 Z M192,144.11 L194.65,144.11 C195.194281,144.072467 195.733873,144.232215 196.17,144.56 C196.500363,144.825121 196.691805,145.226414 196.69,145.65 C196.695284,145.990142 196.570031,146.31938 196.34,146.57 C196.015606,146.879987 195.60988,147.091519 195.17,147.18 L196.61,149.18 C196.73537,149.373538 196.894579,149.54291 197.08,149.68 C197.190535,149.742499 197.31341,149.780045 197.44,149.79 L197.44,150.02 L196.18,150.02 L194.18,147.24 L193.66,147.24 L193.66,149.36 C193.67757,149.493134 193.750107,149.61282 193.86,149.69 C194.053337,149.780741 194.267247,149.818693 194.48,149.8 L194.48,150.03 L191.96,150.03 L191.96,149.8 C192.117498,149.810004 192.275127,149.782591 192.42,149.72 C192.51194,149.66961 192.582865,149.588046 192.62,149.49 C192.649696,149.2777 192.649696,149.0623 192.62,148.85 L192.62,145.25 C192.632357,145.050191 192.632357,144.849809 192.62,144.65 C192.589218,144.551766 192.525685,144.467056 192.44,144.41 C192.303747,144.342571 192.151268,144.314848 192,144.33 L192,144.08 L192,144.11 Z M194.69,142.65 C193.92611,142.656846 193.176297,142.856337 192.51,143.23 C191.808792,143.607958 191.232188,144.181088 190.85,144.88 C190.060973,146.254837 190.060973,147.945163 190.85,149.32 C191.227268,150.015785 191.796522,150.588509 192.49,150.97 C193.861197,151.759286 195.548803,151.759286 196.92,150.97 C197.61615,150.588677 198.188677,150.01615 198.57,149.32 C199.356993,147.944621 199.356993,146.255379 198.57,144.88 C198.184664,144.180034 197.604557,143.606875 196.9,143.23 C196.230577,142.855114 195.477225,142.655596 194.71,142.65 L194.69,142.65 Z M194.71,142.23 C195.550227,142.235006 196.375643,142.451678 197.11,142.86 C197.877438,143.272093 198.509453,143.897162 198.93,144.66 C199.799671,146.170428 199.799671,148.029572 198.93,149.54 C198.508123,150.298409 197.880735,150.922331 197.12,151.34 C195.616692,152.196186 193.773308,152.196186 192.27,151.34 C191.512624,150.921267 190.888733,150.297376 190.47,149.54 C189.596204,148.030678 189.596204,146.169322 190.47,144.66 C190.891842,143.894704 191.527836,143.269136 192.3,142.86 C193.031391,142.453299 193.853165,142.236681 194.69,142.23 L194.71,142.23 Z" id="Shape" stroke="#FFFFFF" stroke-width="0.14" fill="black" fill-rule="nonzero"></path>
        </g>
    </g>
</svg>